<svg width="32" height="32" viewBox="0 0 32 32" fill="none" xmlns="http://www.w3.org/2000/svg">
<path d="M7 0C7.26522 0 7.51957 0.105357 7.70711 0.292893C7.89464 0.48043 8 0.734784 8 1V2H24V1C24 0.734784 24.1054 0.48043 24.2929 0.292893C24.4804 0.105357 24.7348 0 25 0C25.2652 0 25.5196 0.105357 25.7071 0.292893C25.8946 0.48043 26 0.734784 26 1V2H28C29.0609 2 30.0783 2.42143 30.8284 3.17157C31.5786 3.92172 32 4.93913 32 6V28C32 29.0609 31.5786 30.0783 30.8284 30.8284C30.0783 31.5786 29.0609 32 28 32H4C2.93913 32 1.92172 31.5786 1.17157 30.8284C0.421427 30.0783 0 29.0609 0 28V6C0 4.93913 0.421427 3.92172 1.17157 3.17157C1.92172 2.42143 2.93913 2 4 2H6V1C6 0.734784 6.10536 0.48043 6.29289 0.292893C6.48043 0.105357 6.73478 0 7 0ZM4 4C3.46957 4 2.96086 4.21071 2.58579 4.58579C2.21071 4.96086 2 5.46957 2 6V28C2 28.5304 2.21071 29.0391 2.58579 29.4142C2.96086 29.7893 3.46957 30 4 30H28C28.5304 30 29.0391 29.7893 29.4142 29.4142C29.7893 29.0391 30 28.5304 30 28V6C30 5.46957 29.7893 4.96086 29.4142 4.58579C29.0391 4.21071 28.5304 4 28 4H4Z" fill="white"/>
<path d="M5 8C5 7.73478 5.10536 7.48043 5.29289 7.29289C5.48043 7.10536 5.73478 7 6 7H26C26.2652 7 26.5196 7.10536 26.7071 7.29289C26.8946 7.48043 27 7.73478 27 8V10C27 10.2652 26.8946 10.5196 26.7071 10.7071C26.5196 10.8946 26.2652 11 26 11H6C5.73478 11 5.48043 10.8946 5.29289 10.7071C5.10536 10.5196 5 10.2652 5 10V8ZM22 15C22 14.7348 22.1054 14.4804 22.2929 14.2929C22.4804 14.1054 22.7348 14 23 14H25C25.2652 14 25.5196 14.1054 25.7071 14.2929C25.8946 14.4804 26 14.7348 26 15V17C26 17.2652 25.8946 17.5196 25.7071 17.7071C25.5196 17.8946 25.2652 18 25 18H23C22.7348 18 22.4804 17.8946 22.2929 17.7071C22.1054 17.5196 22 17.2652 22 17V15ZM16 15C16 14.7348 16.1054 14.4804 16.2929 14.2929C16.4804 14.1054 16.7348 14 17 14H19C19.2652 14 19.5196 14.1054 19.7071 14.2929C19.8946 14.4804 20 14.7348 20 15V17C20 17.2652 19.8946 17.5196 19.7071 17.7071C19.5196 17.8946 19.2652 18 19 18H17C16.7348 18 16.4804 17.8946 16.2929 17.7071C16.1054 17.5196 16 17.2652 16 17V15ZM6 21C6 20.7348 6.10536 20.4804 6.29289 20.2929C6.48043 20.1054 6.73478 20 7 20H9C9.26522 20 9.51957 20.1054 9.70711 20.2929C9.89464 20.4804 10 20.7348 10 21V23C10 23.2652 9.89464 23.5196 9.70711 23.7071C9.51957 23.8946 9.26522 24 9 24H7C6.73478 24 6.48043 23.8946 6.29289 23.7071C6.10536 23.5196 6 23.2652 6 23V21ZM12 21C12 20.7348 12.1054 20.4804 12.2929 20.2929C12.4804 20.1054 12.7348 20 13 20H15C15.2652 20 15.5196 20.1054 15.7071 20.2929C15.8946 20.4804 16 20.7348 16 21V23C16 23.2652 15.8946 23.5196 15.7071 23.7071C15.5196 23.8946 15.2652 24 15 24H13C12.7348 24 12.4804 23.8946 12.2929 23.7071C12.1054 23.5196 12 23.2652 12 23V21Z" fill="white"/>
</svg>
