<svg width="24" height="32" viewBox="0 0 24 32" fill="none" xmlns="http://www.w3.org/2000/svg">
<path d="M24 27.72V8.91L15 0H4C2.93913 0 1.92172 0.417213 1.17157 1.15986C0.421427 1.9025 0 2.90974 0 3.96V27.72C0 28.7703 0.421427 29.7775 1.17157 30.5201C1.92172 31.2628 2.93913 31.68 4 31.68H20C21.0609 31.68 22.0783 31.2628 22.8284 30.5201C23.5786 29.7775 24 28.7703 24 27.72ZM15 5.94C15 6.72769 15.3161 7.48312 15.8787 8.04011C16.4413 8.59709 17.2044 8.91 18 8.91H22V17.82H2V3.96C2 3.43487 2.21071 2.93125 2.58579 2.55993C2.96086 2.18861 3.46957 1.98 4 1.98H15V5.94ZM2 23.76V19.8H6V23.76H2ZM2 25.74H6V29.7H4C3.46957 29.7 2.96086 29.4914 2.58579 29.1201C2.21071 28.7487 2 28.2451 2 27.72V25.74ZM8 29.7V25.74H14V29.7H8ZM16 29.7V25.74H22V27.72C22 28.2451 21.7893 28.7487 21.4142 29.1201C21.0391 29.4914 20.5304 29.7 20 29.7H16ZM22 23.76H16V19.8H22V23.76ZM8 23.76V19.8H14V23.76H8Z" fill="white"/>
</svg>
