<svg width="18" height="31" viewBox="0 0 18 31" fill="none" xmlns="http://www.w3.org/2000/svg">
<path d="M0 21.6579C0.3205 25.3491 3.27647 27.9686 7.77647 28.3074V31H10.0351V28.3074C14.9509 27.9111 18 25.1233 18 21.0003C18 17.4796 15.9492 15.4424 11.5987 14.2954L10.0351 13.8814V5.46264C12.4649 5.70621 14.1042 7.04364 14.5178 9.04093H17.7012C17.3417 5.49807 14.3662 2.95607 10.0351 2.67486V0H7.77647V2.73021C3.57748 3.2395 0.69514 5.98964 0.69514 9.7185C0.69514 12.9381 2.78705 15.2166 6.45765 16.1776L7.77863 16.5363V25.4621C5.29042 25.0856 3.57748 23.6906 3.16386 21.6579H0ZM7.34336 13.1639C5.0847 12.5816 3.87849 11.3371 3.87849 9.58564C3.87849 7.49536 5.40303 5.952 7.77647 5.53793V13.2769L7.34336 13.1639ZM10.7887 17.3091C13.5758 18.0243 14.7993 19.2111 14.7993 21.2261C14.7993 23.6552 13.0106 25.2739 10.0351 25.5196V17.1164L10.7887 17.3069V17.3091Z" fill="white"/>
</svg>
