<svg width="24" height="27" viewBox="0 0 24 27" fill="none" xmlns="http://www.w3.org/2000/svg">
<path d="M12.8588 8.88431C12.8588 8.65331 12.7685 8.43176 12.6078 8.26842C12.447 8.10507 12.229 8.01331 12.0017 8.01331C11.7743 8.01331 11.5563 8.10507 11.3956 8.26842C11.2348 8.43176 11.1445 8.65331 11.1445 8.88431V13.9361H6.00167C5.77435 13.9361 5.55633 14.0279 5.39558 14.1913C5.23484 14.3546 5.14453 14.5761 5.14453 14.8071C5.14453 15.0382 5.23484 15.2597 5.39558 15.423C5.55633 15.5864 5.77435 15.6782 6.00167 15.6782H12.0017C12.229 15.6782 12.447 15.5864 12.6078 15.423C12.7685 15.2597 12.8588 15.0382 12.8588 14.8071V8.88431Z" fill="#61D61A"/>
<path d="M9.43004 0.871006C9.43004 0.640001 9.52035 0.418457 9.68109 0.255112C9.84184 0.0917664 10.0599 0 10.2872 0H13.7157C13.9431 0 14.1611 0.0917664 14.3218 0.255112C14.4826 0.418457 14.5729 0.640001 14.5729 0.871006C14.5729 1.10201 14.4826 1.32355 14.3218 1.4869C14.1611 1.65024 13.9431 1.74201 13.7157 1.74201V2.73496C16.0472 3.07639 18.1626 4.09373 19.8597 5.59186C19.8665 5.58422 19.8734 5.57667 19.8803 5.56921L20.4872 4.95254L19.8803 4.33761C19.7194 4.17429 19.6289 3.95269 19.6287 3.72155C19.6285 3.49042 19.7187 3.26869 19.8795 3.10513C20.0402 2.94158 20.2583 2.84961 20.4857 2.84945C20.7132 2.84928 20.9314 2.94094 21.0923 3.10426L23.5163 5.56921C23.5982 5.64956 23.6635 5.74567 23.7084 5.85193C23.7533 5.9582 23.777 6.07249 23.778 6.18815C23.7789 6.3038 23.7573 6.41849 23.7142 6.52553C23.6711 6.63258 23.6074 6.72983 23.5269 6.81161C23.4465 6.89339 23.3508 6.95806 23.2454 7.00186C23.1401 7.04565 23.0272 7.06769 22.9134 7.06669C22.7996 7.06568 22.6871 7.04165 22.5825 6.99601C22.478 6.95036 22.3834 6.884 22.3043 6.80081L21.6992 6.18414L21.0923 6.80081C21.085 6.80791 21.0776 6.81488 21.07 6.82172C22.8155 8.86919 23.8403 11.449 23.9828 14.154C24.1253 16.859 23.3774 19.5353 21.8571 21.7604C20.3368 23.9856 18.1306 25.6329 15.5866 26.4426C13.0427 27.2522 10.3059 27.1781 7.80808 26.2318C5.31025 25.2855 3.1936 23.521 1.79214 21.2166C0.390684 18.9123 -0.215795 16.1994 0.0684067 13.5059C0.352608 10.8124 1.51131 8.29183 3.36167 6.3418C5.21203 4.39177 7.6487 3.12335 10.2872 2.7367V1.74201C10.0599 1.74201 9.84184 1.65024 9.68109 1.4869C9.52035 1.32355 9.43004 1.10201 9.43004 0.871006ZM12.0015 4.35503C10.6507 4.35514 9.31324 4.62561 8.06536 5.15098C6.81749 5.67635 5.68366 6.44634 4.72863 7.41698C2.79984 9.37729 1.71639 12.0359 1.71662 14.808C1.71685 17.58 2.80073 20.2385 4.72984 22.1984C6.65894 24.1584 9.27524 25.2594 12.0032 25.2592C14.7311 25.2589 17.3472 24.1575 19.276 22.1972C21.2048 20.2369 22.2883 17.5783 22.288 14.8062C22.2878 12.0342 21.2039 9.37573 19.2748 7.41575C17.3457 5.45577 14.7294 4.3548 12.0015 4.35503Z" fill="#61D61A"/>
</svg>
