<svg width="32" height="35" viewBox="0 0 32 35" fill="none" xmlns="http://www.w3.org/2000/svg">
<path d="M27.7333 2.13333C28.2991 2.13333 28.8418 2.35809 29.2418 2.75817C29.6419 3.15825 29.8667 3.70087 29.8667 4.26667V29.8667C29.8667 30.4325 29.6419 30.9751 29.2418 31.3752C28.8418 31.7752 28.2991 32 27.7333 32H4.26667C3.70087 32 3.15825 31.7752 2.75817 31.3752C2.35809 30.9751 2.13333 30.4325 2.13333 29.8667V4.26667C2.13333 3.70087 2.35809 3.15825 2.75817 2.75817C3.15825 2.35809 3.70087 2.13333 4.26667 2.13333H27.7333ZM4.26667 0C3.13508 0 2.04983 0.449523 1.24968 1.24968C0.449523 2.04983 0 3.13508 0 4.26667V29.8667C0 30.9983 0.449523 32.0835 1.24968 32.8837C2.04983 33.6838 3.13508 34.1333 4.26667 34.1333H27.7333C28.8649 34.1333 29.9502 33.6838 30.7503 32.8837C31.5505 32.0835 32 30.9983 32 29.8667V4.26667C32 3.13508 31.5505 2.04983 30.7503 1.24968C29.9502 0.449523 28.8649 0 27.7333 0L4.26667 0Z" fill="white"/>
<path d="M12.7999 6.4C12.7999 5.8342 13.0247 5.29158 13.4248 4.8915C13.8249 4.49142 14.3675 4.26666 14.9333 4.26666H17.0666C17.6324 4.26666 18.175 4.49142 18.5751 4.8915C18.9752 5.29158 19.1999 5.8342 19.1999 6.4V12.8C19.1999 13.3658 18.9752 13.9084 18.5751 14.3085C18.175 14.7086 17.6324 14.9333 17.0666 14.9333H14.9333C14.3675 14.9333 13.8249 14.7086 13.4248 14.3085C13.0247 13.9084 12.7999 13.3658 12.7999 12.8V6.4ZM4.2666 6.4C4.2666 5.8342 4.49136 5.29158 4.89144 4.8915C5.29152 4.49142 5.83414 4.26666 6.39994 4.26666H8.53327C9.09906 4.26666 9.64169 4.49142 10.0418 4.8915C10.4418 5.29158 10.6666 5.8342 10.6666 6.4V21.3333C10.6666 21.8991 10.4418 22.4417 10.0418 22.8418C9.64169 23.2419 9.09906 23.4667 8.53327 23.4667H6.39994C5.83414 23.4667 5.29152 23.2419 4.89144 22.8418C4.49136 22.4417 4.2666 21.8991 4.2666 21.3333V6.4ZM21.3333 6.4C21.3333 5.8342 21.558 5.29158 21.9581 4.8915C22.3582 4.49142 22.9008 4.26666 23.4666 4.26666H25.5999C26.1657 4.26666 26.7084 4.49142 27.1084 4.8915C27.5085 5.29158 27.7333 5.8342 27.7333 6.4V27.7333C27.7333 28.2991 27.5085 28.8417 27.1084 29.2418C26.7084 29.6419 26.1657 29.8667 25.5999 29.8667H23.4666C22.9008 29.8667 22.3582 29.6419 21.9581 29.2418C21.558 28.8417 21.3333 28.2991 21.3333 27.7333V6.4Z" fill="white"/>
</svg>
