<svg width="32" height="31" viewBox="0 0 32 31" fill="none" xmlns="http://www.w3.org/2000/svg">
<path d="M10.6665 20.3438C10.6665 20.0868 10.7789 19.8404 10.9789 19.6587C11.179 19.4771 11.4503 19.375 11.7332 19.375H15.9998C16.2827 19.375 16.554 19.4771 16.7541 19.6587C16.9541 19.8404 17.0665 20.0868 17.0665 20.3438C17.0665 20.6007 16.9541 20.8471 16.7541 21.0288C16.554 21.2104 16.2827 21.3125 15.9998 21.3125H11.7332C11.4503 21.3125 11.179 21.2104 10.9789 21.0288C10.7789 20.8471 10.6665 20.6007 10.6665 20.3438ZM10.6665 16.4688C10.6665 16.2118 10.7789 15.9654 10.9789 15.7837C11.179 15.6021 11.4503 15.5 11.7332 15.5H22.3998C22.6827 15.5 22.954 15.6021 23.1541 15.7837C23.3541 15.9654 23.4665 16.2118 23.4665 16.4688C23.4665 16.7257 23.3541 16.9721 23.1541 17.1538C22.954 17.3354 22.6827 17.4375 22.3998 17.4375H11.7332C11.4503 17.4375 11.179 17.3354 10.9789 17.1538C10.7789 16.9721 10.6665 16.7257 10.6665 16.4688ZM10.6665 12.5938C10.6665 12.3368 10.7789 12.0904 10.9789 11.9087C11.179 11.7271 11.4503 11.625 11.7332 11.625H22.3998C22.6827 11.625 22.954 11.7271 23.1541 11.9087C23.3541 12.0904 23.4665 12.3368 23.4665 12.5938C23.4665 12.8507 23.3541 13.0971 23.1541 13.2788C22.954 13.4604 22.6827 13.5625 22.3998 13.5625H11.7332C11.4503 13.5625 11.179 13.4604 10.9789 13.2788C10.7789 13.0971 10.6665 12.8507 10.6665 12.5938ZM10.6665 8.71875C10.6665 8.46182 10.7789 8.21542 10.9789 8.03374C11.179 7.85206 11.4503 7.75 11.7332 7.75H22.3998C22.6827 7.75 22.954 7.85206 23.1541 8.03374C23.3541 8.21542 23.4665 8.46182 23.4665 8.71875C23.4665 8.97568 23.3541 9.22208 23.1541 9.40376C22.954 9.58544 22.6827 9.6875 22.3998 9.6875H11.7332C11.4503 9.6875 11.179 9.58544 10.9789 9.40376C10.7789 9.22208 10.6665 8.97568 10.6665 8.71875Z" fill="white"/>
<path d="M6.39997 0H27.7333C28.8649 0 29.9501 0.408258 30.7503 1.13496C31.5504 1.86166 32 2.84729 32 3.875V27.125C32 28.1527 31.5504 29.1383 30.7503 29.865C29.9501 30.5917 28.8649 31 27.7333 31H6.39997C5.26838 31 4.18313 30.5917 3.38298 29.865C2.58282 29.1383 2.1333 28.1527 2.1333 27.125V25.1875H4.26663V27.125C4.26663 27.6389 4.4914 28.1317 4.89147 28.495C5.29155 28.8584 5.83417 29.0625 6.39997 29.0625H27.7333C28.2991 29.0625 28.8417 28.8584 29.2418 28.495C29.6419 28.1317 29.8666 27.6389 29.8666 27.125V3.875C29.8666 3.36114 29.6419 2.86833 29.2418 2.50498C28.8417 2.14163 28.2991 1.9375 27.7333 1.9375H6.39997C5.83417 1.9375 5.29155 2.14163 4.89147 2.50498C4.4914 2.86833 4.26663 3.36114 4.26663 3.875V5.8125H2.1333V3.875C2.1333 2.84729 2.58282 1.86166 3.38298 1.13496C4.18313 0.408258 5.26838 0 6.39997 0Z" fill="white"/>
<path d="M2.13333 9.6875V8.71875C2.13333 8.46182 2.24571 8.21542 2.44575 8.03374C2.64579 7.85206 2.9171 7.75 3.2 7.75C3.4829 7.75 3.75421 7.85206 3.95425 8.03374C4.15429 8.21542 4.26667 8.46182 4.26667 8.71875V9.6875H5.33333C5.61623 9.6875 5.88754 9.78956 6.08758 9.97124C6.28762 10.1529 6.4 10.3993 6.4 10.6562C6.4 10.9132 6.28762 11.1596 6.08758 11.3413C5.88754 11.5229 5.61623 11.625 5.33333 11.625H1.06667C0.783769 11.625 0.512458 11.5229 0.312419 11.3413C0.112381 11.1596 0 10.9132 0 10.6562C0 10.3993 0.112381 10.1529 0.312419 9.97124C0.512458 9.78956 0.783769 9.6875 1.06667 9.6875H2.13333ZM2.13333 15.5V14.5312C2.13333 14.2743 2.24571 14.0279 2.44575 13.8462C2.64579 13.6646 2.9171 13.5625 3.2 13.5625C3.4829 13.5625 3.75421 13.6646 3.95425 13.8462C4.15429 14.0279 4.26667 14.2743 4.26667 14.5312V15.5H5.33333C5.61623 15.5 5.88754 15.6021 6.08758 15.7837C6.28762 15.9654 6.4 16.2118 6.4 16.4688C6.4 16.7257 6.28762 16.9721 6.08758 17.1538C5.88754 17.3354 5.61623 17.4375 5.33333 17.4375H1.06667C0.783769 17.4375 0.512458 17.3354 0.312419 17.1538C0.112381 16.9721 0 16.7257 0 16.4688C0 16.2118 0.112381 15.9654 0.312419 15.7837C0.512458 15.6021 0.783769 15.5 1.06667 15.5H2.13333ZM2.13333 21.3125V20.3438C2.13333 20.0868 2.24571 19.8404 2.44575 19.6587C2.64579 19.4771 2.9171 19.375 3.2 19.375C3.4829 19.375 3.75421 19.4771 3.95425 19.6587C4.15429 19.8404 4.26667 20.0868 4.26667 20.3438V21.3125H5.33333C5.61623 21.3125 5.88754 21.4146 6.08758 21.5962C6.28762 21.7779 6.4 22.0243 6.4 22.2812C6.4 22.5382 6.28762 22.7846 6.08758 22.9663C5.88754 23.1479 5.61623 23.25 5.33333 23.25H1.06667C0.783769 23.25 0.512458 23.1479 0.312419 22.9663C0.112381 22.7846 0 22.5382 0 22.2812C0 22.0243 0.112381 21.7779 0.312419 21.5962C0.512458 21.4146 0.783769 21.3125 1.06667 21.3125H2.13333Z" fill="white"/>
</svg>
