<svg width="32" height="27" viewBox="0 0 32 27" fill="none" xmlns="http://www.w3.org/2000/svg">
<path d="M0 1.92857C0 1.41708 0.210714 0.926543 0.585786 0.564865C0.960859 0.203188 1.46957 0 2 0H30C30.5304 0 31.0391 0.203188 31.4142 0.564865C31.7893 0.926543 32 1.41708 32 1.92857V25.0714C32 25.5829 31.7893 26.0735 31.4142 26.4351C31.0391 26.7968 30.5304 27 30 27H2C1.46957 27 0.960859 26.7968 0.585786 26.4351C0.210714 26.0735 0 25.5829 0 25.0714V1.92857ZM17 1.92857V17.3571H30V1.92857H17ZM17 19.2857V25.0714H30V19.2857H17ZM15 1.92857H2V7.71429H15V1.92857ZM2 25.0714H15V9.64286H2V25.0714Z" fill="white"/>
</svg>
