<svg width="32" height="37" viewBox="0 0 32 37" fill="none" xmlns="http://www.w3.org/2000/svg">
<path d="M10.76 10.512C11.528 13.584 12.168 16.096 12.68 18.048C13.192 19.968 13.592 21.6 13.88 22.944C14.2 24.256 14.424 25.424 14.552 26.448C14.68 27.472 14.744 28.608 14.744 29.856C14.744 31.04 14.488 32.048 13.976 32.88C13.464 33.68 12.824 34.336 12.056 34.848C11.288 35.36 10.472 35.728 9.608 35.952C8.744 36.176 7.976 36.288 7.304 36.288C5.896 36.288 4.728 36.064 3.8 35.616C2.904 35.168 2.184 34.608 1.64 33.936C1.096 33.232 0.712 32.464 0.488 31.632C0.264 30.768 0.152 29.952 0.152 29.184C0.152 28.352 0.312 27.632 0.632 27.024C0.984 26.384 1.4 25.936 1.88 25.68C2.712 23.28 3.528 20.912 4.328 18.576C5.128 16.208 5.656 13.84 5.912 11.472L10.76 10.512ZM9.656 29.328C9.656 28.336 9.592 27.456 9.464 26.688C9.368 25.92 9.208 25.072 8.984 24.144C8.76 23.216 8.472 22.096 8.12 20.784C7.8 19.44 7.416 17.728 6.968 15.648C6.776 17.44 6.376 19.152 5.768 20.784C5.192 22.416 4.664 24.096 4.184 25.824C4.472 26.016 4.712 26.288 4.904 26.64C5.128 26.96 5.24 27.392 5.24 27.936C5.24 28.544 5.08 29.008 4.76 29.328C4.44 29.648 4.088 29.808 3.704 29.808C3.192 29.808 2.76 29.584 2.408 29.136C2.664 30.256 3.112 31.136 3.752 31.776C4.392 32.384 5.24 32.688 6.296 32.688C7.32 32.688 8.136 32.432 8.744 31.92C9.352 31.376 9.656 30.512 9.656 29.328ZM22.3528 32.16L29.0248 0.239997H31.7608L23.6968 36H18.3688L11.2168 2.736C9.93675 2.736 8.86475 2.96 8.00075 3.408C7.16875 3.824 6.49675 4.4 5.98475 5.136C5.50475 5.84 5.15275 6.656 4.92875 7.584C4.73675 8.48 4.64075 9.408 4.64075 10.368C4.64075 11.744 4.83275 12.976 5.21675 14.064C5.60075 15.152 6.16075 16.16 6.89675 17.088C6.25675 17.088 5.61675 16.992 4.97675 16.8C4.33675 16.608 3.76075 16.272 3.24875 15.792C2.73675 15.312 2.32075 14.672 2.00075 13.872C1.68075 13.04 1.52075 12 1.52075 10.752C1.52075 9.312 1.79275 7.936 2.33675 6.624C2.88075 5.312 3.68075 4.176 4.73675 3.216C5.79275 2.224 7.08875 1.44 8.62475 0.863997C10.1608 0.287997 11.9208 -2.86102e-06 13.9048 -2.86102e-06C14.2568 -2.86102e-06 14.5928 0.0159979 14.9128 0.0479994C15.2648 0.079999 15.6168 0.127998 15.9688 0.191998L22.3528 32.16Z" fill="white"/>
</svg>
