<svg width="32" height="24" viewBox="0 0 32 24" fill="none" xmlns="http://www.w3.org/2000/svg">
<path fill-rule="evenodd" clip-rule="evenodd" d="M1.18519 0C0.870854 0 0.569398 0.124868 0.347133 0.347133C0.124867 0.569398 0 0.870854 0 1.18519V3.55556C0 3.86989 0.124867 4.17134 0.347133 4.39361C0.569398 4.61587 0.870854 4.74074 1.18519 4.74074H3.55556C3.86989 4.74074 4.17134 4.61587 4.39361 4.39361C4.61587 4.17134 4.74074 3.86989 4.74074 3.55556V1.18519C4.74074 0.870854 4.61587 0.569398 4.39361 0.347133C4.17134 0.124868 3.86989 0 3.55556 0H1.18519ZM3.55556 1.18519H1.18519V3.55556H3.55556V1.18519Z" fill="white"/>
<path d="M8.29639 2.37038C8.29639 2.05605 8.42125 1.75459 8.64352 1.53233C8.86579 1.31006 9.16724 1.1852 9.48157 1.1852H30.8149C31.1292 1.1852 31.4307 1.31006 31.653 1.53233C31.8752 1.75459 32.0001 2.05605 32.0001 2.37038C32.0001 2.68471 31.8752 2.98617 31.653 3.20843C31.4307 3.4307 31.1292 3.55557 30.8149 3.55557H9.48157C9.16724 3.55557 8.86579 3.4307 8.64352 3.20843C8.42125 2.98617 8.29639 2.68471 8.29639 2.37038ZM9.48157 10.6667C9.16724 10.6667 8.86579 10.7915 8.64352 11.0138C8.42125 11.2361 8.29639 11.5375 8.29639 11.8519C8.29639 12.1662 8.42125 12.4676 8.64352 12.6899C8.86579 12.9122 9.16724 13.037 9.48157 13.037H30.8149C31.1292 13.037 31.4307 12.9122 31.653 12.6899C31.8752 12.4676 32.0001 12.1662 32.0001 11.8519C32.0001 11.5375 31.8752 11.2361 31.653 11.0138C31.4307 10.7915 31.1292 10.6667 30.8149 10.6667H9.48157ZM9.48157 20.1482C9.16724 20.1482 8.86579 20.273 8.64352 20.4953C8.42125 20.7176 8.29639 21.019 8.29639 21.3333C8.29639 21.6477 8.42125 21.9491 8.64352 22.1714C8.86579 22.3937 9.16724 22.5185 9.48157 22.5185H30.8149C31.1292 22.5185 31.4307 22.3937 31.653 22.1714C31.8752 21.9491 32.0001 21.6477 32.0001 21.3333C32.0001 21.019 31.8752 20.7176 31.653 20.4953C31.4307 20.273 31.1292 20.1482 30.8149 20.1482H9.48157Z" fill="white"/>
<path fill-rule="evenodd" clip-rule="evenodd" d="M0 10.6667C0 10.3523 0.124867 10.0509 0.347133 9.82862C0.569398 9.60636 0.870854 9.48149 1.18519 9.48149H3.55556C3.86989 9.48149 4.17134 9.60636 4.39361 9.82862C4.61587 10.0509 4.74074 10.3523 4.74074 10.6667V13.037C4.74074 13.3514 4.61587 13.6528 4.39361 13.8751C4.17134 14.0974 3.86989 14.2222 3.55556 14.2222H1.18519C0.870854 14.2222 0.569398 14.0974 0.347133 13.8751C0.124867 13.6528 0 13.3514 0 13.037V10.6667ZM1.18519 10.6667H3.55556V13.037H1.18519V10.6667ZM1.18519 18.963C0.870854 18.963 0.569398 19.0878 0.347133 19.3101C0.124867 19.5324 0 19.8338 0 20.1482V22.5185C0 22.8329 0.124867 23.1343 0.347133 23.3566C0.569398 23.5788 0.870854 23.7037 1.18519 23.7037H3.55556C3.86989 23.7037 4.17134 23.5788 4.39361 23.3566C4.61587 23.1343 4.74074 22.8329 4.74074 22.5185V20.1482C4.74074 19.8338 4.61587 19.5324 4.39361 19.3101C4.17134 19.0878 3.86989 18.963 3.55556 18.963H1.18519ZM3.55556 20.1482H1.18519V22.5185H3.55556V20.1482Z" fill="white"/>
</svg>
